<svg width="712" height="120" viewBox="0 0 712 120" fill="none" xmlns="http://www.w3.org/2000/svg">
<path d="M80.9531 74.0366L105.001 87.9199V31.3184L80.9531 45.2017V74.0366Z" fill="black"/>
<path d="M24.0479 45.2056L0 31.3223V87.9238L24.0479 74.0405V45.2056Z" fill="black"/>
<path d="M54.2458 91.4703V119.237C76.1719 106.578 81.3344 103.596 103.26 90.938L79.2125 77.0547C65.2927 85.0901 67.0865 84.0547 54.2422 91.4703H54.2458Z" fill="black"/>
<path d="M25.7901 77.0508L1.74219 90.9381C23.8469 103.698 28.6557 106.476 50.7604 119.237V91.4703C36.8698 83.4495 38.6089 84.4557 25.7901 77.0547V77.0508Z" fill="black"/>
<path d="M79.2089 42.1902L103.257 28.3068C81.3745 15.6704 76.1208 12.6404 54.2422 0.00390625V27.7745C67.2505 35.285 66.0948 34.6178 79.2125 42.1902H79.2089Z" fill="black"/>
<path d="M1.74219 28.3026L25.7901 42.1859C56.3239 24.5583 24.5943 42.8786 50.7604 27.7703V0C28.426 12.8917 11.6297 22.5895 1.74219 28.3026Z" fill="black"/>
<path d="M126.48 94.448V63.344C126.48 58.48 128.912 56.56 133.776 56.048L187.28 50.928V46.832H129.68C127.504 46.832 126.48 45.68 126.48 43.632V27.888C126.48 25.712 127.504 24.688 129.68 24.688H208.4C213.52 24.688 216.08 27.248 216.08 32.24V63.088C216.08 68.08 213.648 70.128 208.656 70.512L155.024 75.888V79.984H213.264C215.312 79.984 216.464 81.008 216.464 83.184V98.8C216.464 100.976 215.312 102.128 213.264 102.128H134.16C129.04 102.128 126.48 99.568 126.48 94.448Z" fill="black"/>
<path d="M253.896 73.712V79.856H310.472C312.52 79.856 313.8 80.88 314.312 82.928L317.384 98.928C317.768 101.104 316.872 102 314.824 102H246.344C232.264 102 225.224 94.96 225.224 80.88V45.936C225.224 31.728 232.264 24.688 246.344 24.688H296.52C310.472 24.688 318.024 31.472 318.024 44.016V54.384C318.024 67.184 310.728 73.712 296.648 73.712H253.896ZM253.896 46.832V52.72H289.352V46.832H253.896Z" fill="black"/>
<path d="M361.689 77.424L358.873 49.392H355.161V98.544C355.161 100.976 354.265 102 351.833 102H330.073C327.641 102 326.489 100.848 326.489 98.416V32.24C326.489 27.248 328.921 24.688 334.041 24.688H360.793C378.969 24.688 382.937 34.544 384.345 49.264L387.161 77.168H390.873V28.144C390.873 25.712 391.769 24.688 394.201 24.688H415.961C418.393 24.688 419.673 25.84 419.673 28.272V94.448C419.673 99.568 417.113 102 411.993 102H385.241C367.065 102 363.097 92.272 361.689 77.424Z" fill="black"/>
<path d="M457.905 75.504H506.801C508.849 75.504 510.385 76.528 510.641 78.576L513.713 98.928C514.097 101.104 513.329 102 511.153 102H450.353C436.273 102 429.233 94.96 429.233 80.88V28.272C429.233 25.84 430.385 24.688 432.817 24.688H454.577C457.009 24.688 457.905 25.712 457.905 28.272V75.504Z" fill="black"/>
<path d="M519.221 80.88V45.936C519.221 31.728 526.261 24.688 540.341 24.688H591.925C606.005 24.688 613.173 31.728 613.173 45.936V80.88C613.173 94.96 606.005 102.128 591.925 102.128H540.341C526.261 102.128 519.221 94.96 519.221 80.88ZM547.893 51.184V75.504H584.373V51.184H547.893Z" fill="black"/>
<path d="M651.039 28.272V49.008H674.463L681.119 28.272C682.143 25.328 682.911 24.688 686.623 24.688H708.127C711.071 24.688 711.839 26.48 710.815 29.424L703.519 52.208C701.983 56.944 697.887 60.016 689.567 60.016V63.088C697.887 63.088 701.983 66.928 703.519 72.304L710.687 96.88C711.711 100.848 711.583 102 707.871 102H686.623C683.551 102 681.887 101.232 681.119 98.416L674.847 75.504H651.039V98.544C651.039 100.976 650.143 102 647.711 102H625.951C623.519 102 622.367 100.848 622.367 98.416V28.272C622.367 25.84 623.519 24.688 625.951 24.688H647.711C650.143 24.688 651.039 25.712 651.039 28.272Z" fill="black"/>
</svg>
