<svg width="105" height="120" viewBox="0 0 105 120" fill="none" xmlns="http://www.w3.org/2000/svg">
<path d="M80.9531 74.0366L105.001 87.9199V31.3184L80.9531 45.2017V74.0366Z" fill="white"/>
<path d="M24.0479 45.2056L0 31.3223V87.9238L24.0479 74.0405V45.2056Z" fill="white"/>
<path d="M54.2458 91.4703V119.237C76.1719 106.578 81.3344 103.596 103.26 90.938L79.2125 77.0547C65.2927 85.0901 67.0865 84.0547 54.2422 91.4703H54.2458Z" fill="white"/>
<path d="M25.7901 77.0508L1.74219 90.9381C23.8469 103.698 28.6557 106.476 50.7604 119.237V91.4703C36.8698 83.4495 38.6089 84.4557 25.7901 77.0547V77.0508Z" fill="white"/>
<path d="M79.2089 42.1902L103.257 28.3068C81.3745 15.6704 76.1208 12.6404 54.2422 0.00390625V27.7745C67.2505 35.285 66.0948 34.6178 79.2125 42.1902H79.2089Z" fill="white"/>
<path d="M1.74219 28.3026L25.7901 42.1859C56.3239 24.5583 24.5943 42.8786 50.7604 27.7703V0C28.426 12.8917 11.6297 22.5895 1.74219 28.3026Z" fill="white"/>
</svg>
